<svg width="245" height="267" viewBox="0 0 245 267" fill="none" xmlns="http://www.w3.org/2000/svg">
<path d="M204.88 82.5939V80.0262H204.826C204.505 71.1998 202.794 62.6943 199.959 54.7773C198.193 49.2675 195.786 43.5437 192.576 38.0338H182.466C192.737 52.3166 195.412 70.8253 196.107 79.0098H174.228V18.5087C171.554 16.3155 168.718 14.2828 165.776 12.464V87.5153H165.83V155.291C168.772 153.473 171.607 151.44 174.282 149.3V88.5317H196.16C195.465 96.7162 192.79 115.171 182.466 129.508H192.576C194.609 126.031 196.321 122.5 197.765 118.969C203.008 105.971 204.345 93.2926 204.719 87.5688H204.773H204.826V86.5524C204.88 85.4825 204.88 84.4127 204.88 83.3428C204.88 83.0753 204.88 82.8079 204.88 82.5939Z" fill="#FCFCFC"/>
<path d="M118.648 0C113.888 0.213974 109.287 0.802402 104.794 1.76528V9.89629C106.612 9.46834 108.538 9.14738 110.197 8.93341V23.6976H93.6135V4.97489C90.7249 6.04476 87.8897 7.27511 85.1616 8.66594V32.1496H118.648V0Z" fill="#FCFCFC"/>
<path d="M159.357 8.82642C156.629 7.43559 153.794 6.20524 150.905 5.08188V23.6441H134.322V8.93341C135.927 9.14738 137.746 9.46834 139.457 9.8428V1.76528C135.071 0.802402 130.524 0.213974 125.87 0V32.1496H159.357V8.82642Z" fill="#FCFCFC"/>
<path d="M78.7959 12.25C75.8537 14.0688 73.0186 16.1015 70.3439 18.2413V79.0098H48.4116C49.107 70.8253 51.7817 52.3701 62.1059 38.0338H51.9956C49.9629 41.5109 48.2511 45.0415 46.8068 48.5721C41.5644 61.571 40.2271 74.2489 39.8526 80.0262H39.7991H39.7456V81.0426C39.6921 82.1124 39.6921 83.1823 39.6921 84.2522C39.6921 84.4662 39.6921 84.7336 39.6921 84.9476V87.4618H39.7456C40.0666 96.2882 41.7784 104.794 44.6135 112.711C46.3788 118.221 48.786 123.944 51.9956 129.454H62.1059C51.8352 115.171 49.1605 96.6627 48.4116 88.4782H70.2904V149.033C72.9651 151.226 75.8002 153.259 78.7424 155.131V80.0262H78.6889V12.25H78.7959Z" fill="#FCFCFC"/>
<path d="M125.924 167.541C130.684 167.328 135.285 166.739 139.832 165.776V157.645C138.013 158.073 136.087 158.394 134.429 158.608V143.897H151.012V162.567C153.901 161.497 156.736 160.266 159.464 158.876V135.392H125.977V167.541H125.924Z" fill="#FCFCFC"/>
<path d="M85.2151 158.715C87.9432 160.106 90.7784 161.336 93.667 162.46V143.897H110.25V158.662C108.645 158.448 106.826 158.127 105.115 157.752V165.83C109.501 166.793 114.048 167.381 118.702 167.595V135.445H85.2151V158.715Z" fill="#FCFCFC"/>
<path d="M94.5764 127.314H84.8406V41.2435H159.517V88.5317H118.702V78.7959H149.728V51.0328H94.5764V127.314Z" fill="#FCFCFC"/>
<path d="M159.517 97.5721H150.103V127.368H159.517V97.5721Z" fill="#FCFCFC"/>
<path d="M143.79 97.5721H134.376V127.368H143.79V97.5721Z" fill="#FCFCFC"/>
<path d="M128.117 97.5721H118.702V127.368H128.117V97.5721Z" fill="#FCFCFC"/>
<path d="M135.713 60.7686H112.015H110.785H102.6V127.314H112.015V70.5044H135.713V60.7686Z" fill="#FCFCFC"/>
<path d="M20.8624 210.55C23.2162 212.155 24.4465 214.562 24.4465 217.665C24.4465 219.484 23.9651 221.195 23.0022 222.854C22.0393 224.512 20.4345 225.849 18.1343 226.973C15.8341 228.043 12.7314 228.578 8.93341 228.578C8.23799 228.578 7.64956 228.578 7.27511 228.524V235.264C7.27511 236.922 7.22162 238.153 7.11463 238.955L11.3941 238.741V240.828H0V239.276C1.06987 239.223 1.87227 239.009 2.35371 238.527C2.83515 238.046 3.10262 237.511 3.15611 236.869C3.20961 236.227 3.2631 235.104 3.2631 233.552V213.439C3.2631 212.155 3.31659 211.032 3.42358 210.069L0 210.229V208.197C4.33297 208.143 7.81004 208.09 10.3777 208.09C15.0317 208.09 18.5087 208.945 20.8624 210.55ZM8.07751 210.604C7.64956 211.032 7.43559 211.567 7.3286 212.155C7.27511 212.743 7.22162 213.867 7.22162 215.472V226.598C7.97052 226.705 8.9869 226.759 10.2707 226.759C12.036 226.759 13.6408 226.384 15.1386 225.689C16.6365 224.993 17.7598 223.977 18.6157 222.64C19.4716 221.302 19.8996 219.805 19.8996 217.986C19.8996 215.204 19.0437 213.118 17.3319 211.834C15.6201 210.55 13.2664 209.855 10.2707 209.855C9.25437 209.908 8.50546 210.122 8.07751 210.604Z" fill="white"/>
<path d="M64.5666 216.328H63.0153C63.0153 213.813 62.4803 212.048 61.357 211.139C60.2336 210.229 58.7358 209.801 56.703 209.855L52.691 209.962C51.5677 210.015 50.7653 210.229 50.2838 210.604C49.8024 210.978 49.4814 211.513 49.3744 212.209C49.2675 212.904 49.214 214.027 49.214 215.472V222.907L57.9869 222.961L57.6659 218.949H59.6987V228.738H58.1474C58.1474 227.615 57.9869 226.705 57.7194 226.117C57.452 225.528 57.024 225.1 56.4356 224.886C55.8472 224.672 55.0448 224.565 54.0284 224.565L52.5841 224.619L49.1605 224.779V235.425C49.1605 237.029 49.107 238.26 49 239.062L57.8799 238.902C60.0731 238.848 61.7314 238.313 62.8548 237.243C63.9782 236.174 64.5666 234.301 64.5666 231.68H66.1714L65.9039 240.774H41.9389V239.223C43.0087 239.169 43.8111 238.955 44.2926 238.474C44.774 237.992 45.0415 237.457 45.095 236.816C45.1485 236.174 45.202 235.05 45.202 233.499V213.439C45.202 212.155 45.2555 211.032 45.3624 210.069L41.9924 210.229V208.197H64.4061L64.5666 216.328Z" fill="white"/>
<path d="M111.052 218.039H109.287C109.234 216.06 109.073 214.509 108.699 213.385C108.324 212.209 107.736 211.353 106.88 210.764C106.024 210.176 104.794 209.908 103.242 209.908H99.2838L99.2303 235.264C99.2303 236.922 99.1769 238.153 99.0699 238.955L102.921 238.741V240.774H92.0087V239.223C93.3461 239.169 94.202 238.795 94.5764 238.099C94.9509 237.404 95.1648 236.388 95.1648 234.943V233.499L95.2183 209.908L90.4039 209.962C88.4782 209.962 87.0873 210.604 86.2849 211.888C85.4825 213.171 85.0546 215.204 85.0546 217.986H83.3428L83.6103 208.143H110.731L111.052 218.039Z" fill="white"/>
<path d="M154.81 218.039H153.045C152.991 216.06 152.831 214.509 152.456 213.385C152.082 212.209 151.493 211.353 150.638 210.764C149.782 210.176 148.551 209.908 147 209.908H143.041L142.988 235.264C142.988 236.922 142.934 238.153 142.828 238.955L146.679 238.741V240.774H135.713V239.223C137.05 239.169 137.906 238.795 138.281 238.099C138.655 237.404 138.869 236.388 138.869 234.943V233.499L138.922 209.908L134.108 209.962C132.182 209.962 130.791 210.604 129.989 211.888C129.187 213.171 128.759 215.204 128.759 217.986H127.047L127.314 208.143H154.436L154.81 218.039Z" fill="white"/>
<path d="M192.683 210.39C194.716 211.781 195.733 213.867 195.733 216.488C195.786 218.628 195.144 220.553 193.807 222.265C192.523 223.977 190.223 225.154 187.013 225.796C187.548 226.224 188.029 226.705 188.457 227.24C188.885 227.775 189.474 228.685 190.223 229.861L193.379 234.836C194.074 235.906 194.609 236.762 195.091 237.35C195.519 237.939 196.107 238.367 196.749 238.741C197.391 239.116 198.14 239.276 199.103 239.276V240.828H193.218C192.362 240.132 191.667 239.383 191.079 238.634C190.49 237.885 189.848 236.869 189.046 235.692L185.943 230.717L185.355 229.754C184.873 228.898 184.445 228.257 184.071 227.722C183.697 227.187 183.269 226.705 182.841 226.331C182.573 226.384 182.145 226.384 181.557 226.384C180.701 226.384 180.112 226.384 179.684 226.331V235.371C179.684 237.029 179.631 238.26 179.524 239.062L182.894 238.848V240.881H172.409V239.33C173.479 239.276 174.282 239.062 174.763 238.581C175.245 238.099 175.512 237.564 175.566 236.922C175.619 236.281 175.672 235.157 175.672 233.606V213.439C175.672 212.155 175.726 211.032 175.833 210.069L172.463 210.229V208.197C175.672 208.143 178.133 208.09 179.791 208.09C181.289 208.09 182.413 208.09 183.162 208.143C187.441 208.197 190.651 208.945 192.683 210.39ZM180.54 210.604C180.059 211.032 179.791 211.567 179.738 212.209C179.684 212.85 179.631 213.92 179.631 215.525V224.459C180.54 224.512 181.236 224.565 181.664 224.565C187.976 224.565 191.132 222.051 191.132 217.076C191.132 214.723 190.437 212.957 189.099 211.781C187.762 210.604 185.622 210.015 182.841 210.015C181.771 209.908 181.022 210.122 180.54 210.604Z" fill="white"/>
<path d="M240.667 233.82C240.988 234.676 241.309 235.585 241.523 236.548C241.79 237.511 241.897 238.313 241.844 238.955L245 238.741V240.774H234.355V239.223C236.174 239.169 237.083 238.474 237.083 236.976C237.083 236.388 236.922 235.639 236.602 234.783L234.997 230.396L222.907 230.664C222.426 231.948 221.891 233.606 221.249 235.639C220.928 236.655 220.553 237.725 220.072 238.848L223.71 238.634V240.667H215.044V239.116C215.793 239.116 216.435 238.955 216.916 238.581C217.397 238.206 217.772 237.778 218.039 237.19C218.36 236.602 218.681 235.746 219.109 234.622L219.591 233.338L229.166 207.234H230.289L240.667 233.82ZM228.898 214.134L226.919 219.377L224.405 226.438L223.603 228.738H234.355L231.092 219.858L229.005 214.134H228.898Z" fill="white"/>
<path d="M38.9432 261.316L34.2358 261.369V264.204C34.2358 264.418 34.2358 264.632 34.2358 264.793C34.2358 264.953 34.2358 265.114 34.1823 265.221L35.1452 265.167V265.755H32.2031V265.328C32.4705 265.328 32.631 265.274 32.738 265.167C32.845 265.06 32.952 264.953 33.0055 264.846C33.059 264.686 33.059 264.525 33.059 264.365C33.059 264.151 33.059 263.937 33.059 263.723V258.052C33.059 257.892 33.059 257.678 33.059 257.517C33.059 257.357 33.059 257.197 33.1125 257.09L32.1496 257.143V256.555H35.0917V256.983C34.8242 256.983 34.6638 257.036 34.5568 257.143C34.4498 257.25 34.3428 257.357 34.2893 257.464C34.2358 257.624 34.2358 257.785 34.1823 257.945C34.1823 258.159 34.1823 258.373 34.1823 258.587V260.781H38.8897V257.999C38.8897 257.624 38.8897 257.303 38.9432 257.036L37.9804 257.09V256.501H40.9225V256.929C40.655 256.929 40.4945 256.983 40.3876 257.09C40.2806 257.197 40.1736 257.304 40.1201 257.41C40.0666 257.571 40.0666 257.731 40.0666 257.892C40.0666 258.106 40.0666 258.32 40.0666 258.534V264.097C40.0666 264.579 40.0666 264.9 40.0131 265.114L40.976 265.06V265.648H38.0338V265.328C38.3013 265.328 38.4618 265.274 38.5688 265.167C38.6758 265.06 38.7828 264.953 38.8362 264.846C38.8897 264.686 38.8897 264.525 38.9432 264.365C38.9432 264.151 38.9432 263.937 38.9432 263.723V261.316Z" fill="white"/>
<path d="M50.1769 261.155C50.1769 260.781 50.2304 260.406 50.2838 260.032C50.3908 259.657 50.4978 259.283 50.6583 258.908C50.8188 258.534 51.0328 258.213 51.3002 257.892C51.5677 257.571 51.8352 257.303 52.2096 257.09C52.5306 256.876 52.905 256.662 53.333 256.555C53.7609 256.394 54.2424 256.341 54.7238 256.341C55.2587 256.341 55.7402 256.394 56.1681 256.555C56.5961 256.715 57.024 256.876 57.345 257.09C57.6659 257.303 57.9869 257.571 58.2544 257.892C58.5218 258.213 58.7358 258.534 58.8963 258.908C59.0568 259.283 59.2173 259.657 59.2708 260.032C59.3777 260.406 59.3777 260.781 59.3777 261.155C59.3777 261.529 59.3242 261.904 59.2708 262.278C59.1638 262.653 59.0568 263.027 58.8963 263.402C58.7358 263.776 58.5218 264.097 58.2544 264.418C57.9869 264.739 57.7194 265.007 57.345 265.221C57.024 265.434 56.6496 265.648 56.2216 265.755C55.7937 265.916 55.3122 265.969 54.8308 265.969C54.2959 265.969 53.7609 265.916 53.333 265.755C52.905 265.648 52.4771 265.434 52.1561 265.221C51.8352 265.007 51.5142 264.739 51.2467 264.418C50.9793 264.097 50.7653 263.776 50.6583 263.402C50.4978 263.027 50.3908 262.653 50.2838 262.278C50.2304 261.904 50.1769 261.529 50.1769 261.155ZM51.5142 260.888C51.5142 261.209 51.5677 261.529 51.6212 261.904C51.6747 262.278 51.7817 262.599 51.8887 262.92C51.9956 263.241 52.1561 263.562 52.3701 263.883C52.5306 264.204 52.798 264.472 53.012 264.686C53.2795 264.9 53.5469 265.114 53.8679 265.221C54.1889 265.328 54.5633 265.435 54.9378 265.435C55.3122 265.435 55.6332 265.381 55.9007 265.274C56.2216 265.167 56.4891 265.007 56.7031 264.846C56.917 264.632 57.131 264.418 57.345 264.151C57.5055 263.883 57.6659 263.616 57.7729 263.295C57.8799 262.974 57.9869 262.653 58.0404 262.332C58.0939 262.011 58.1474 261.69 58.1474 261.369C58.1474 261.048 58.0939 260.674 58.0404 260.299C57.9869 259.925 57.8799 259.55 57.7194 259.229C57.6125 258.908 57.3985 258.587 57.238 258.266C57.024 257.999 56.8101 257.731 56.5961 257.517C56.3286 257.303 56.0611 257.143 55.7402 257.036C55.4192 256.929 55.0983 256.822 54.7238 256.822C54.1889 256.822 53.7074 256.929 53.2795 257.197C52.8515 257.41 52.5306 257.731 52.2631 258.106C51.9956 258.48 51.7817 258.908 51.6747 259.39C51.5677 259.925 51.5142 260.406 51.5142 260.888Z" fill="white"/>
<path d="M68.6856 256.555H70.7183C71.0393 257.25 71.3068 257.892 71.5742 258.534C71.8417 259.176 72.1092 259.818 72.3766 260.406C72.6441 261.048 72.9116 261.636 73.179 262.278C73.4465 262.867 73.714 263.509 73.9814 264.151C74.0349 264.044 74.0884 263.883 74.1419 263.776C74.1954 263.616 74.2489 263.455 74.3024 263.348C74.3559 263.188 74.4094 263.027 74.4629 262.92C74.5164 262.76 74.5699 262.653 74.6234 262.546C74.9978 261.583 75.4258 260.62 75.8002 259.657C76.2282 258.694 76.6026 257.678 77.0306 256.662H78.9563V257.09C78.7959 257.09 78.6354 257.09 78.5284 257.143C78.4214 257.197 78.3144 257.25 78.2609 257.357C78.2074 257.464 78.1539 257.624 78.1004 257.785C78.0469 257.945 78.0469 258.213 78.1004 258.48L78.4214 264.472C78.4214 264.632 78.4214 264.793 78.4214 264.9C78.4214 265.06 78.4214 265.167 78.4214 265.274L79.3843 265.221V265.809H76.4956V265.328C76.7096 265.328 76.8701 265.274 76.9771 265.221C77.0841 265.167 77.191 265.06 77.2445 264.9C77.298 264.793 77.3515 264.632 77.3515 264.418C77.3515 264.204 77.3515 263.99 77.3515 263.776L77.0306 258.159C77.0306 258.213 76.9771 258.266 76.9236 258.373C76.8701 258.427 76.8701 258.534 76.8166 258.587L73.8745 265.862H73.5C73.2325 265.221 72.9116 264.579 72.6441 263.937C72.3766 263.295 72.0557 262.653 71.7882 262.011C71.5207 261.369 71.1998 260.727 70.9323 260.032C70.6649 259.39 70.3974 258.694 70.1299 257.999V258.587C70.1299 258.801 70.1299 259.015 70.1299 259.336C70.1299 259.604 70.1299 259.871 70.1299 260.192C70.1299 260.513 70.1299 260.834 70.0764 261.155C70.0764 261.476 70.0764 261.85 70.0764 262.171C70.0764 262.492 70.0764 262.813 70.0764 263.188C70.0764 263.509 70.0764 263.83 70.0764 264.097C70.0764 264.311 70.0764 264.472 70.0764 264.686C70.0764 264.9 70.0764 265.06 70.0229 265.221L70.9858 265.167V265.755H68.4716V265.328C68.6856 265.328 68.8461 265.274 68.9531 265.221C69.06 265.167 69.167 265.06 69.2205 264.953C69.274 264.846 69.3275 264.739 69.3275 264.579C69.3275 264.418 69.381 264.258 69.381 264.097L69.6485 257.09L68.6856 257.143V256.555Z" fill="white"/>
<path d="M90.5644 264.204C90.5644 264.472 90.5644 264.632 90.5644 264.793C90.5644 264.953 90.5644 265.114 90.5109 265.221L93.0251 265.167C93.2926 265.167 93.56 265.114 93.8275 265.06C94.0415 265.007 94.2555 264.9 94.4159 264.739C94.5764 264.579 94.6834 264.365 94.7904 264.097C94.8974 263.83 94.9509 263.509 94.9509 263.134H95.3788L95.3253 265.702H88.5317V265.328C88.7456 265.328 88.9061 265.274 89.0131 265.221C89.1201 265.167 89.2271 265.06 89.2806 264.953C89.3341 264.846 89.3876 264.739 89.3876 264.579C89.3876 264.418 89.3876 264.258 89.3876 264.097V263.723V258.052C89.3876 257.892 89.3876 257.731 89.3876 257.571C89.3876 257.41 89.3876 257.25 89.4411 257.143L88.4782 257.196V256.608H94.7904L94.8439 258.908H94.4159C94.4159 258.534 94.3625 258.213 94.309 257.999C94.202 257.785 94.095 257.571 93.9345 257.41C93.774 257.25 93.6135 257.197 93.3996 257.143C93.1856 257.09 92.9716 257.09 92.7576 257.09H91.5273C91.2598 257.09 91.0994 257.143 90.9389 257.196C90.7784 257.25 90.7249 257.357 90.6179 257.464C90.5644 257.571 90.5109 257.731 90.5109 257.945C90.5109 258.159 90.5109 258.373 90.5109 258.641V260.781H92.9716L92.8646 259.657H93.4531V262.439H93.0786C93.0786 262.171 93.0786 261.957 93.0251 261.797C92.9716 261.636 92.9181 261.529 92.8111 261.422C92.7042 261.316 92.5972 261.262 92.4367 261.262C92.2762 261.209 92.1157 261.209 91.9018 261.209C91.8483 261.209 91.7948 261.209 91.7413 261.209C91.6878 261.209 91.3133 261.209 90.5644 261.262V264.204Z" fill="white"/>
<path d="M118.969 256.555C119.772 256.555 120.467 256.662 121.163 256.822C121.805 256.983 122.393 257.303 122.874 257.678C123.356 258.052 123.73 258.534 123.998 259.122C124.265 259.711 124.372 260.406 124.372 261.209C124.372 261.636 124.319 262.011 124.212 262.385C124.105 262.76 123.998 263.134 123.784 263.455C123.57 263.776 123.356 264.097 123.088 264.365C122.821 264.632 122.5 264.9 122.126 265.114C121.751 265.328 121.323 265.488 120.895 265.595C120.414 265.702 119.932 265.755 119.397 265.755H115.92V265.328C116.188 265.328 116.348 265.274 116.455 265.221C116.562 265.114 116.669 265.007 116.723 264.9C116.776 264.739 116.776 264.579 116.776 264.418C116.776 264.204 116.776 263.99 116.776 263.776V258.106C116.776 257.945 116.776 257.731 116.776 257.571C116.776 257.41 116.776 257.25 116.83 257.143L115.867 257.196V256.608L118.969 256.555ZM117.9 264.204C117.9 264.418 117.9 264.632 117.9 264.793C117.9 264.953 117.9 265.114 117.846 265.221C118.007 265.221 118.167 265.221 118.328 265.221C118.488 265.221 118.648 265.221 118.755 265.221C118.862 265.221 118.969 265.221 119.076 265.221C119.183 265.221 119.237 265.221 119.237 265.221C119.825 265.221 120.307 265.114 120.788 264.9C121.27 264.686 121.644 264.418 121.965 264.044C122.286 263.669 122.553 263.241 122.714 262.706C122.874 262.225 122.981 261.636 122.981 261.048C122.981 260.406 122.874 259.871 122.714 259.39C122.553 258.908 122.286 258.48 121.965 258.106C121.644 257.731 121.163 257.464 120.628 257.303C120.093 257.09 119.451 257.036 118.755 257.036C118.488 257.036 118.328 257.09 118.221 257.143C118.114 257.197 118.007 257.303 117.953 257.464C117.9 257.624 117.9 257.785 117.846 257.945C117.846 258.159 117.846 258.373 117.846 258.587V264.204H117.9Z" fill="white"/>
<path d="M135.445 264.204C135.445 264.472 135.445 264.632 135.445 264.793C135.445 264.953 135.445 265.114 135.392 265.221L137.906 265.167C138.174 265.167 138.441 265.114 138.709 265.06C138.922 265.007 139.136 264.9 139.297 264.739C139.457 264.579 139.618 264.365 139.671 264.097C139.778 263.83 139.778 263.509 139.778 263.134H140.206L140.153 265.702H133.359V265.328C133.573 265.328 133.734 265.274 133.841 265.221C133.948 265.167 134.055 265.06 134.108 264.953C134.162 264.846 134.215 264.739 134.215 264.579C134.215 264.418 134.215 264.258 134.215 264.097V263.723V258.052C134.215 257.892 134.215 257.731 134.215 257.571C134.215 257.41 134.215 257.25 134.269 257.143L133.306 257.196V256.608H139.618L139.671 258.908H139.243C139.243 258.534 139.19 258.213 139.136 257.999C139.029 257.785 138.922 257.571 138.762 257.41C138.602 257.25 138.441 257.197 138.227 257.143C138.013 257.09 137.799 257.09 137.585 257.09H136.355C136.087 257.09 135.927 257.143 135.766 257.196C135.659 257.25 135.552 257.357 135.445 257.464C135.392 257.571 135.338 257.731 135.338 257.945C135.338 258.159 135.338 258.373 135.338 258.641V260.781H137.799L137.692 259.657H138.281V262.439H137.853C137.853 262.171 137.853 261.957 137.799 261.797C137.746 261.636 137.692 261.529 137.585 261.422C137.478 261.316 137.371 261.262 137.211 261.262C137.05 261.209 136.89 261.209 136.676 261.209C136.622 261.209 136.569 261.209 136.462 261.209C136.408 261.209 136.034 261.209 135.285 261.262V264.204H135.445Z" fill="white"/>
<path d="M150.263 265.862H149.568L149.514 263.081H149.996C150.049 263.455 150.103 263.83 150.263 264.097C150.424 264.365 150.584 264.632 150.798 264.846C151.012 265.06 151.279 265.167 151.6 265.274C151.921 265.381 152.242 265.435 152.563 265.435C152.831 265.435 153.045 265.381 153.312 265.328C153.526 265.274 153.74 265.167 153.901 265.007C154.061 264.846 154.222 264.686 154.329 264.472C154.436 264.258 154.489 264.044 154.489 263.776C154.489 263.455 154.436 263.188 154.275 262.974C154.115 262.76 153.954 262.546 153.687 262.385C153.473 262.225 153.205 262.064 152.884 261.904C152.563 261.743 152.296 261.636 151.975 261.476C151.654 261.315 151.386 261.155 151.065 260.995C150.745 260.834 150.477 260.62 150.263 260.46C150.049 260.246 149.835 259.978 149.728 259.711C149.568 259.443 149.514 259.069 149.514 258.694C149.514 258.534 149.514 258.373 149.568 258.213C149.621 258.052 149.675 257.892 149.728 257.678C149.782 257.517 149.889 257.357 150.049 257.197C150.156 257.036 150.317 256.876 150.531 256.769C150.745 256.662 150.959 256.555 151.226 256.501C151.493 256.448 151.814 256.394 152.189 256.394C152.349 256.394 152.563 256.394 152.724 256.448C152.938 256.448 153.098 256.501 153.312 256.555C153.526 256.608 153.687 256.662 153.901 256.769C154.115 256.876 154.275 256.983 154.489 257.09L154.436 256.501H155.078V259.39H154.596C154.596 259.069 154.489 258.748 154.436 258.48C154.329 258.159 154.168 257.945 154.008 257.678C153.794 257.464 153.58 257.25 153.312 257.143C153.045 256.983 152.67 256.929 152.296 256.929C152.028 256.929 151.761 256.983 151.547 257.036C151.333 257.143 151.172 257.25 151.012 257.357C150.852 257.517 150.745 257.678 150.691 257.838C150.638 257.999 150.584 258.213 150.584 258.427C150.584 258.748 150.638 259.015 150.798 259.229C150.959 259.443 151.119 259.657 151.386 259.818C151.6 259.978 151.868 260.139 152.189 260.299C152.51 260.46 152.777 260.567 153.098 260.727C153.419 260.888 153.74 261.048 154.008 261.209C154.329 261.369 154.596 261.583 154.81 261.797C155.024 262.011 155.238 262.278 155.398 262.546C155.559 262.813 155.612 263.188 155.612 263.562C155.612 263.937 155.559 264.258 155.398 264.579C155.238 264.9 155.078 265.167 154.81 265.381C154.543 265.595 154.222 265.755 153.847 265.916C153.473 266.023 153.045 266.076 152.563 266.076C152.349 266.076 152.189 266.076 151.975 266.023C151.761 266.023 151.547 265.969 151.333 265.916C151.119 265.862 150.959 265.809 150.745 265.702C150.531 265.595 150.37 265.541 150.21 265.381L150.263 265.862Z" fill="white"/>
<path d="M165.669 257.999C165.669 257.838 165.669 257.624 165.669 257.464C165.669 257.303 165.669 257.143 165.723 257.036L164.76 257.09V256.501H167.702V256.929C167.434 256.929 167.274 256.983 167.167 257.09C167.06 257.197 166.953 257.304 166.9 257.41C166.846 257.571 166.793 257.731 166.793 257.892C166.793 258.106 166.793 258.32 166.793 258.534V264.097C166.793 264.311 166.793 264.525 166.793 264.686C166.793 264.846 166.793 265.007 166.739 265.114L167.702 265.06V265.648H164.76V265.328C165.027 265.328 165.188 265.274 165.295 265.167C165.402 265.06 165.509 264.953 165.562 264.846C165.616 264.686 165.616 264.525 165.616 264.365C165.616 264.151 165.616 263.937 165.616 263.723V257.999H165.669Z" fill="white"/>
<path d="M184.98 265.274H184.606C184.445 265.274 184.285 265.274 184.017 265.328C183.803 265.381 183.483 265.488 183.162 265.595C183.001 265.648 182.894 265.702 182.734 265.755C182.573 265.809 182.413 265.809 182.252 265.862C182.092 265.916 181.931 265.916 181.771 265.916C181.61 265.916 181.45 265.916 181.289 265.916C180.647 265.916 180.005 265.809 179.471 265.595C178.936 265.381 178.454 265.06 178.08 264.686C177.705 264.311 177.384 263.83 177.17 263.241C176.956 262.653 176.849 262.011 176.849 261.316C176.849 260.888 176.903 260.513 176.956 260.085C177.063 259.657 177.17 259.283 177.331 258.908C177.491 258.534 177.705 258.213 177.973 257.892C178.24 257.571 178.508 257.303 178.882 257.036C179.203 256.822 179.578 256.608 180.005 256.501C180.433 256.394 180.915 256.287 181.396 256.287C181.61 256.287 181.878 256.287 182.092 256.341C182.359 256.394 182.573 256.448 182.787 256.501C183.001 256.555 183.269 256.662 183.483 256.715C183.697 256.822 183.91 256.929 184.071 257.036L184.017 256.394H184.766V259.39H184.285C184.231 258.962 184.178 258.587 184.017 258.266C183.857 257.945 183.643 257.678 183.429 257.464C183.162 257.25 182.894 257.09 182.573 256.983C182.252 256.876 181.878 256.822 181.503 256.822C181.022 256.822 180.594 256.929 180.166 257.143C179.738 257.357 179.417 257.624 179.096 257.999C178.775 258.373 178.561 258.801 178.401 259.336C178.24 259.871 178.133 260.406 178.133 260.995C178.133 261.636 178.24 262.171 178.401 262.706C178.561 263.241 178.829 263.669 179.096 264.044C179.417 264.418 179.791 264.739 180.219 264.953C180.647 265.167 181.129 265.274 181.664 265.274C181.824 265.274 182.038 265.274 182.199 265.221C182.413 265.221 182.573 265.167 182.787 265.114C183.001 265.06 183.162 265.007 183.376 264.9C183.59 264.793 183.75 264.739 183.91 264.579V261.69L183.001 261.743V261.155H185.943V261.583C185.783 261.583 185.622 261.636 185.515 261.69C185.408 261.743 185.301 261.85 185.248 261.904C185.194 262.011 185.141 262.118 185.087 262.225C185.034 262.332 185.034 262.439 185.034 262.599C185.034 262.706 185.034 262.813 185.034 262.92C185.034 263.027 185.034 263.081 185.034 263.134V265.274H184.98Z" fill="white"/>
<path d="M202.633 265.969H201.991L196.267 258.32L196.321 263.937C196.321 264.151 196.321 264.365 196.321 264.579C196.321 264.793 196.321 265.007 196.321 265.221L197.284 265.167V265.755H194.877V265.328C195.091 265.328 195.251 265.274 195.358 265.221C195.465 265.167 195.572 265.06 195.626 264.953C195.679 264.846 195.733 264.739 195.733 264.632C195.733 264.525 195.733 264.418 195.733 264.311V257.09L194.877 257.143V256.555H196.428L201.991 264.044V258.052C201.991 257.678 201.991 257.357 202.045 257.09L201.082 257.143V256.555H203.489V256.983C203.222 256.983 203.061 257.036 202.954 257.143C202.847 257.25 202.74 257.357 202.687 257.464C202.633 257.624 202.633 257.785 202.633 257.945C202.633 258.159 202.633 258.373 202.633 258.587V265.969Z" fill="white"/>
</svg>
